<?xml version="1.0" encoding="utf-8"?>
<!-- Generator: Adobe Illustrator 16.0.0, SVG Export Plug-In . SVG Version: 6.00 Build 0)  -->
<!DOCTYPE svg PUBLIC "-//W3C//DTD SVG 1.1//EN" "http://www.w3.org/Graphics/SVG/1.1/DTD/svg11.dtd">
<svg version="1.1" id="b6b8b2d9-98ab-4cec-b352-4cd04d14ea2d"
	 xmlns="http://www.w3.org/2000/svg" xmlns:xlink="http://www.w3.org/1999/xlink" x="0px" y="0px" width="800px" height="800px"
	 viewBox="6.832 -49.372 800 800" enable-background="new 6.832 -49.372 800 800" xml:space="preserve">
<title>content_structure</title>
<rect x="31.874" y="124.204" fill="#D0CDE1" width="114.539" height="101.698"/>
<rect x="31.874" y="307.261" fill="#D0CDE1" width="114.539" height="101.697"/>
<rect x="399.907" y="124.204" fill="#D0CDE1" width="114.539" height="101.698"/>
<rect x="399.907" y="307.261" fill="#D0CDE1" width="114.539" height="101.697"/>
<rect x="217.191" y="124.204" fill="#3F3D56" width="114.539" height="101.698"/>
<rect x="217.191" y="307.261" fill="#3F3D56" width="114.539" height="101.697"/>
<path fill="#53D267" d="M311.978,216.75l-73.996-1.675c8.861-28.674,10.772-55.973,1.836-81.127l73.996,1.676
	C306.33,162.071,305.698,189.99,311.978,216.75z"/>
<rect x="275.571" y="131.214" transform="matrix(-0.0227 0.9997 -0.9997 -0.0227 433.0922 -122.5876)" fill="#FFFFFF" width="1.784" height="38.345"/>
<rect x="275.41" y="138.346" transform="matrix(-0.0224 0.9997 -0.9997 -0.0224 439.9827 -115.1774)" fill="#FFFFFF" width="1.784" height="38.344"/>
<rect x="275.248" y="145.478" transform="matrix(-0.0224 0.9997 -0.9997 -0.0224 446.948 -107.7239)" fill="#FFFFFF" width="1.784" height="38.345"/>
<rect x="275.087" y="152.61" transform="matrix(-0.0225 0.9997 -0.9997 -0.0225 453.915 -100.2693)" fill="#FFFFFF" width="1.783" height="38.345"/>
<rect x="274.925" y="159.742" transform="matrix(-0.0227 0.9997 -0.9997 -0.0227 460.9527 -92.766)" fill="#FFFFFF" width="1.784" height="38.345"/>
<rect x="274.764" y="166.875" transform="matrix(-0.0227 0.9997 -0.9997 -0.0227 467.9179 -85.31)" fill="#FFFFFF" width="1.784" height="38.345"/>
<rect x="274.603" y="174.006" transform="matrix(-0.0225 0.9997 -0.9997 -0.0225 474.8106 -77.9083)" fill="#FFFFFF" width="1.783" height="38.345"/>
<rect x="274.441" y="181.138" transform="matrix(-0.0224 0.9997 -0.9997 -0.0224 481.7739 -70.4558)" fill="#FFFFFF" width="1.784" height="38.345"/>
<circle fill="#53D267" cx="333.194" cy="117.424" r="21.47"/>
<polygon fill="#FFFFFF" points="332.428,127.886 324.297,117.947 325.576,116.901 332.308,125.129 344.072,107.876 345.437,108.806 
	"/>
<ellipse fill="#D0CDE1" cx="372.743" cy="667.726" rx="354.815" ry="18.08"/>
<path fill="#D0CDE1" d="M701.437,638.841l83.695-124.463l-83.524,137.854l0.174,14.005c-6.109,0.047-12.161-0.054-18.152-0.305
	l4.151-180.028l-0.113-1.389l0.152-0.27l0.398-17.011l-91.657-133.074l91.549,120.341l0.324,3.597l3.136-136.019l-79.166-137.968
	l79.392,114.073L690.967,16.39l0.002-0.938l0.026,0.922l5.255,222.093l72.15-90.214L696.486,257.6l1.575,121.666l66.394-118.741
	l-66.15,136.627l0.877,67.652L795.736,299.4l-96.262,189.006L701.437,638.841z"/>
<path fill="#53D267" d="M325.801,554.919l-62.285-39.982c22.503-19.856,38.358-42.162,43.837-68.29l62.286,39.983
	C349.47,505.306,334.384,528.807,325.801,554.919z"/>
<rect x="329.174" y="460.601" transform="matrix(-0.5401 0.8416 -0.8416 -0.5401 912.113 461.1492)" fill="#FFFFFF" width="1.784" height="38.345"/>
<rect x="325.32" y="466.604" transform="matrix(-0.5406 0.8413 -0.8413 -0.5406 911.2354 473.9458)" fill="#FFFFFF" width="1.783" height="38.344"/>
<rect x="321.466" y="472.605" transform="matrix(-0.5401 0.8416 -0.8416 -0.5401 910.3448 486.1251)" fill="#FFFFFF" width="1.784" height="38.346"/>
<rect x="317.612" y="478.61" transform="matrix(-0.5401 0.8416 -0.8416 -0.5401 909.4622 498.6152)" fill="#FFFFFF" width="1.784" height="38.344"/>
<rect x="313.758" y="484.612" transform="matrix(-0.5403 0.8414 -0.8414 -0.5403 908.577 511.2407)" fill="#FFFFFF" width="1.784" height="38.345"/>
<rect x="309.905" y="490.617" transform="matrix(-0.5401 0.8416 -0.8416 -0.5401 907.6956 523.5942)" fill="#FFFFFF" width="1.784" height="38.344"/>
<rect x="306.051" y="496.62" transform="matrix(-0.5399 0.8417 -0.8417 -0.5399 906.8193 535.9067)" fill="#FFFFFF" width="1.784" height="38.345"/>
<rect x="302.198" y="502.623" transform="matrix(-0.5406 0.8412 -0.8412 -0.5406 905.9127 548.9282)" fill="#FFFFFF" width="1.782" height="38.344"/>
<path fill="#53D267" d="M193.339,679.797l15.557-30.151c28.709,4.722,33.776,3.757,58.863,0.501l6.67,32.722
	C247.6,678.804,220.398,677.775,193.339,679.797z"/>
<polygon fill="#FFFFFF" points="258.242,674.361 257.754,657.408 259.537,657.475 260.024,674.426 "/>
<polygon fill="#FFFFFF" points="251.114,674.089 250.625,657.137 252.408,657.205 252.896,674.157 "/>
<polygon fill="#FFFFFF" points="243.984,673.819 243.497,656.868 245.279,656.933 245.767,673.886 "/>
<rect x="229.585" y="664.216" transform="matrix(-0.0379 0.9993 -0.9993 -0.0379 911.7151 452.402)" fill="#FFFFFF" width="16.965" height="1.783"/>
<rect x="222.457" y="663.945" transform="matrix(-0.0378 0.9993 -0.9993 -0.0378 904.0402 459.2255)" fill="#FFFFFF" width="16.965" height="1.783"/>
<polygon fill="#FFFFFF" points="222.598,673.008 224.371,656.056 226.153,656.125 224.38,673.078 "/>
<polygon fill="#FFFFFF" points="215.469,672.74 217.241,655.787 219.024,655.854 217.252,672.807 "/>
<polygon fill="#FFFFFF" points="208.34,672.469 210.113,655.516 211.895,655.583 210.123,672.537 "/>
<path fill="#FFB8B8" d="M305.509,417.435l1.13,11.3c0,0-9.041,32.769,4.52,30.51c13.56-2.262,9.04-30.51,9.04-30.51l-2.259-9.04
	L305.509,417.435z"/>
<path fill="#FFB8B8" d="M450.146,418.565l-1.129,11.3c0,0,9.039,32.771-4.521,30.509c-13.56-2.259-9.039-30.509-9.039-30.509
	l2.259-9.041L450.146,418.565z"/>
<polygon fill="#FFB8B8" points="337.713,631.566 334.324,655.296 358.054,653.035 354.663,629.306 "/>
<polygon fill="#FFB8B8" points="463.143,631.566 466.532,655.296 442.802,653.035 446.192,629.306 "/>
<path fill="#2F2E41" d="M333.759,406.134c0,0-5.65,2.261,0,88.14l2.26,140.116h22.599l9.041-124.297l12.429-75.709l35.03,98.308
	l28.249,105.089l22.6-5.649l-29.38-134.469c0,0,5.65-77.968-14.689-91.528C401.558,392.576,333.759,406.134,333.759,406.134z"/>
<path fill="#2F2E41" d="M339.409,647.951c0,0-0.469-10.276-2.495-10.787c-2.025-0.512-16.715,11.917-16.715,11.917
	s-15.819-2.259-14.689,14.69c1.13,16.948,23.729,11.299,23.729,11.299s4.52,10.17,13.56,10.17c9.04,0,22.6,0,23.729-6.779
	c1.13-6.779-5.65-37.289-7.91-36.159c-2.26,1.13-7.91,0-7.91,0L339.409,647.951z"/>
<path fill="#2F2E41" d="M461.447,647.951c0,0,0.469-10.276,2.494-10.787c2.025-0.512,16.715,11.917,16.715,11.917
	s15.82-2.259,14.69,14.69c-1.13,16.948-23.729,11.299-23.729,11.299s-4.521,10.17-13.561,10.17c-9.039,0-22.6,0-23.729-6.779
	c-1.131-6.779,5.649-37.289,7.91-36.159c2.26,1.13,7.909,0,7.909,0L461.447,647.951z"/>
<circle fill="#FFB8B8" cx="377.828" cy="212.908" r="21.47"/>
<path fill="#FFB8B8" d="M392.518,216.298c0,0,1.13,30.509,6.78,33.899c5.65,3.39-33.899,0-33.899,0l4.52-25.99L392.518,216.298z"/>
<path fill="#575A89" d="M401.558,246.807c0,0-20.34-10.17-39.549-3.39c-19.209,6.78-29.379,14.69-29.379,14.69l12.43,65.54
	c0,0-23.729,85.878-16.95,88.137c6.78,2.261,87.009-6.779,94.918,0c7.91,6.781,7.91-7.909,7.91-7.909s-11.3-28.25-9.04-51.979
	c2.26-23.729,2.26-31.64,2.26-31.64l12.43-53.109L401.558,246.807z"/>
<path fill="#575A89" d="M340.539,258.107h-7.91c0,0-12.43,7.91-12.43,19.21s-11.3,73.448-11.3,73.448l-6.78,70.059l19.21,3.391
	l16.949-92.658l12.43-24.86L340.539,258.107z"/>
<path fill="#575A89" d="M415.118,267.147h21.469c0,0,6.78,6.78,10.17,22.6c3.39,15.82,6.78,77.969,6.78,77.969l-2.26,56.499h-16.95
	l-2.26-73.449l-11.3-47.458L415.118,267.147z"/>
<path fill="#2F2E41" d="M359.558,211.427l4.545,11.612c1.862,4.758,3.996,9.849,8.361,12.505c5.39,3.278,12.588,1.68,17.802-1.872
	c12.689-8.644,15.969-25.937,7.326-38.626c-4.555-6.688-11.798-11.059-19.838-11.972l-0.215,3.887l-4.77-3.998
	c-1.289,2.212-4.128,2.96-6.34,1.671c-0.313-0.183-0.604-0.401-0.867-0.652c1.252,2.597-0.193,5.764-2.281,7.753
	c-2.565,2.444-9.902,5.381-9.598,9.75C353.886,204.4,358.375,208.406,359.558,211.427z"/>
</svg>
